<svg version="1.1" id="Layer_1" xmlns="http://www.w3.org/2000/svg" xmlns:xlink="http://www.w3.org/1999/xlink" x="0px" y="0px"
	 width="100%" viewBox="0 0 1024 672" enable-background="new 0 0 1024 672" xml:space="preserve">
<path fill="#000000" opacity="1.000000" stroke="none" 
	d="
M613.334595,35.551758 
	C648.348999,48.182381 679.825989,66.300217 708.315125,89.569862 
	C738.007080,113.821930 762.632874,142.501678 782.422913,175.347397 
	C801.963440,207.779007 815.144836,242.649750 822.437500,279.751038 
	C829.859924,317.512268 830.620239,355.358734 824.474304,393.445312 
	C817.011536,439.692413 800.768921,482.385345 774.850647,521.414612 
	C748.873657,560.532227 716.390625,593.004333 676.676758,618.200989 
	C642.544922,639.856140 605.750122,654.873474 566.093262,662.671265 
	C535.345703,668.717102 504.302032,669.503113 473.086334,667.443665 
	C433.523529,664.833618 395.942322,654.519592 360.129517,638.008972 
	C319.180573,619.130371 284.102966,592.100037 254.193954,558.394043 
	C229.541199,530.611633 209.852631,499.666962 195.976974,465.169678 
	C184.476212,436.576752 177.502838,406.889374 174.567139,376.161835 
	C173.184860,361.693939 172.549911,347.253326 172.853409,332.765442 
	C173.445999,304.477722 178.248535,276.859589 186.018005,249.663193 
	C198.000916,207.717911 217.984512,169.947815 245.530960,136.318253 
	C276.227142,98.843346 312.991821,68.687012 357.020508,47.945412 
	C384.705994,34.902988 413.570892,25.591167 443.858276,20.463312 
	C466.298218,16.664072 488.805786,15.081026 511.463043,15.917708 
	C546.264587,17.202852 580.232910,23.189539 613.334595,35.551758 
M411.746063,637.700623 
	C438.539551,645.741760 465.978180,649.916199 493.888947,650.618896 
	C528.796753,651.497864 563.050781,646.864746 596.224609,635.882446 
	C659.313965,614.996460 710.990417,578.047180 750.263245,524.287048 
	C783.282654,479.086945 803.528259,428.705170 808.671082,372.820923 
	C812.018066,336.451569 809.759521,300.396332 800.275146,264.809540 
	C788.402954,220.263046 768.021729,180.286499 738.283875,145.176407 
	C711.844604,113.960846 680.639038,88.497452 644.344238,69.392029 
	C611.415710,52.058601 576.398010,41.282219 539.594116,36.519390 
	C514.914185,33.325531 490.139771,33.460361 465.333282,36.067657 
	C437.144226,39.030487 409.934601,45.817577 383.701080,56.300774 
	C351.420532,69.200401 322.268066,87.234604 296.128082,110.315826 
	C264.974731,137.823837 240.057404,170.117416 221.879166,207.298233 
	C196.733353,258.730103 187.279602,313.271057 192.009674,370.375519 
	C194.648270,402.230347 202.469193,432.749420 214.795929,462.072388 
	C230.138168,498.568665 252.123810,530.694641 280.056763,558.828857 
	C317.085999,596.124878 360.484131,622.654907 411.746063,637.700623 
z"/>
<path fill="#000000" opacity="1.000000" stroke="none" 
	d="
M669.117310,239.586044 
	C673.767883,239.618378 677.935608,239.577484 682.098328,239.702118 
	C689.976624,239.937988 696.127808,243.149673 700.345947,250.044617 
	C705.255371,258.069489 708.806519,266.645630 711.376831,275.647980 
	C715.489746,290.053497 719.638611,304.450470 723.553955,318.910156 
	C727.313110,332.792694 726.604736,346.925568 725.455383,361.068176 
	C725.118774,365.210724 725.248047,369.389221 725.068481,373.547150 
	C724.961304,376.030884 725.724243,377.682556 728.365112,378.287109 
	C731.564331,379.019501 732.333008,381.449188 732.301941,384.384094 
	C732.240234,390.215698 732.314270,396.049591 732.184204,401.879272 
	C732.066223,407.165222 730.190918,409.087311 724.830444,409.116241 
	C708.001221,409.207092 691.170837,409.113129 674.341675,409.216370 
	C670.756042,409.238373 669.492798,407.528168 668.783630,404.255463 
	C665.002991,386.809814 654.855835,373.948425 637.422852,370.245880 
	C615.824097,365.658600 599.864990,369.422180 587.071106,390.081177 
	C584.172607,394.761505 581.037659,396.649078 575.822632,396.216156 
	C572.179321,395.913666 568.491211,396.197235 564.831482,396.032745 
	C561.644348,395.889526 560.463623,397.206604 560.309265,400.407379 
	C559.803284,410.897675 559.701416,410.944214 549.344666,410.872925 
	C532.522400,410.757111 515.700806,410.489594 498.878632,410.460052 
	C494.571167,410.452484 491.628021,409.514008 491.817200,404.467896 
	C491.916962,401.807281 490.255585,401.056610 487.930603,401.116913 
	C486.431671,401.155762 484.909607,400.988953 483.436127,401.191833 
	C479.244934,401.768829 477.160187,399.795471 475.581085,396.021790 
	C469.952179,382.569946 460.133972,373.372528 445.810394,370.246033 
	C423.433746,365.361664 403.335968,374.050964 393.837006,395.354431 
	C393.294525,396.571014 392.745361,397.792480 392.324219,399.053375 
	C391.750885,400.769897 390.875305,402.008118 388.871063,402.116333 
	C386.668854,402.235291 385.570953,401.035553 384.801056,399.148712 
	C382.522369,393.564209 379.654327,388.340179 375.472900,383.895966 
	C352.399109,359.371765 313.203918,366.152283 299.741302,397.004852 
	C299.081116,398.517883 298.599945,400.340118 297.449829,401.354187 
	C295.723724,402.876068 293.323029,402.392212 291.216064,401.918671 
	C288.949463,401.409332 288.750885,399.465179 288.743469,397.568512 
	C288.725830,393.069855 288.727448,388.570862 288.760040,384.072296 
	C288.791595,379.712982 291.043427,376.962250 295.330200,376.774628 
	C300.290161,376.557587 301.871338,374.390503 301.706055,369.552521 
	C301.441620,361.811096 301.702332,361.792023 309.403412,361.788361 
	C396.051758,361.747223 482.700104,361.709381 569.348450,361.670837 
	C576.774780,361.667511 576.774719,361.667908 576.938721,354.324829 
	C577.113403,346.501312 577.801636,345.836578 585.658936,345.763611 
	C597.862122,345.650269 596.648193,347.426849 596.698181,334.920776 
	C596.802795,308.759827 596.815857,282.598480 596.825562,256.437286 
	C596.826721,253.238647 597.052734,250.141205 598.394043,247.166595 
	C600.887390,241.636963 604.713013,238.590881 611.167175,238.739090 
	C630.318604,239.178833 649.476685,239.325989 669.117310,239.586044 
M638.601807,303.863068 
	C656.739868,303.869202 674.878052,303.902252 693.016052,303.868073 
	C700.081116,303.854736 701.955322,305.193512 699.302979,296.134949 
	C696.269470,285.774323 694.145264,275.165100 690.899597,264.844330 
	C689.441956,260.209442 687.046997,258.029633 681.985291,258.076630 
	C666.678467,258.218719 651.365601,258.149445 636.061218,257.848969 
	C631.343018,257.756348 630.062500,259.556183 630.170715,263.993866 
	C630.434326,274.804291 630.301697,285.624329 630.332764,296.440491 
	C630.353882,303.781433 630.356995,303.781433 638.601807,303.863068 
M713.076599,349.366455 
	C713.086792,350.196564 713.141296,351.028931 713.099121,351.856384 
	C712.941956,354.934204 713.711731,356.891510 717.449646,356.915283 
	C721.112305,356.938599 721.961304,355.222656 721.896667,352.010010 
	C721.799927,347.198914 721.827209,342.373199 722.104248,337.571167 
	C722.272827,334.648468 721.545044,333.222382 718.353394,333.294434 
	C715.400452,333.361176 712.995300,333.607208 713.087830,337.450165 
	C713.175720,341.100494 713.090698,344.754944 713.076599,349.366455 
M642.356689,326.997437 
	C644.824768,326.541321 647.974609,328.208435 649.670227,324.823029 
	C644.981934,322.310089 630.456909,322.757263 627.242065,325.933411 
	C632.097168,327.926422 636.859802,326.540070 642.356689,326.997437 
z"/>
<path fill="#000000" opacity="1.000000" stroke="none" 
	d="
M305.108795,241.690552 
	C379.555725,241.701218 453.520142,241.665054 527.484192,241.809891 
	C532.477966,241.819656 535.315796,240.545456 537.199646,235.601120 
	C539.798157,228.781296 543.406860,222.347275 546.564697,215.739334 
	C548.249390,212.214111 550.888550,210.679596 554.916199,210.700653 
	C574.739197,210.804291 594.563599,210.767929 614.386597,210.640350 
	C618.559692,210.613495 619.224548,212.077652 617.833801,215.777222 
	C611.821960,231.769363 616.481567,228.870926 599.162964,229.205948 
	C585.173828,229.476578 587.601013,226.421585 583.036743,240.955307 
	C571.619446,277.311005 560.767700,313.849243 547.847412,349.719940 
	C545.283142,356.839355 545.110474,357.108734 537.552002,357.107605 
	C460.755615,357.096375 383.959198,357.056335 307.162842,357.110443 
	C302.300140,357.113861 297.994812,355.662659 293.820099,353.520477 
	C286.412354,349.719330 279.138275,345.645264 271.632629,342.052338 
	C267.694061,340.166962 266.794006,337.909088 268.114441,333.770386 
	C275.751709,309.832947 283.182678,285.829681 290.680664,261.847839 
	C292.021698,257.558746 293.740234,253.341049 294.587402,248.955734 
	C295.719727,243.094833 298.725800,240.587494 305.108795,241.690552 
M347.265503,262.270142 
	C340.608948,262.263947 333.952393,262.265533 327.295868,262.249847 
	C316.609314,262.224640 316.486206,262.179352 313.123566,272.415100 
	C307.000946,291.052216 300.533234,309.576752 295.016815,328.414490 
	C293.797241,332.579254 294.827789,333.831757 298.975952,333.769623 
	C308.958588,333.620148 318.958893,333.377686 328.923462,333.818939 
	C334.162048,334.050873 336.220825,332.079803 337.483215,327.258118 
	C342.576782,307.802856 347.992310,288.431671 353.328461,269.040314 
	C355.088989,262.642548 354.975037,262.435333 347.265503,262.270142 
M430.408936,298.807251 
	C427.283661,308.819550 424.211212,318.848816 421.000610,328.833679 
	C420.049591,331.791321 420.038788,333.714996 423.936371,333.692719 
	C434.932770,333.629822 445.929871,333.633881 456.926361,333.684235 
	C459.542053,333.696198 460.878540,332.413788 461.557617,330.044647 
	C467.382385,309.723175 473.281036,289.422729 479.032318,269.080566 
	C480.558289,263.683167 479.575653,262.459778 473.969910,262.406158 
	C464.477112,262.315338 454.981659,262.488434 445.489136,262.385742 
	C442.418427,262.352539 441.036438,263.746460 440.214142,266.529938 
	C437.104340,277.056641 433.849792,287.540558 430.408936,298.807251 
M526.110046,322.700531 
	C531.525330,304.873718 536.946045,287.048553 542.352722,269.219147 
	C544.104248,263.443359 543.427917,262.503632 537.427429,262.459564 
	C529.442261,262.400940 521.438782,262.705719 513.477783,262.249664 
	C508.420685,261.959961 506.087952,263.803864 504.494446,268.519989 
	C498.794312,285.389984 492.634644,302.104156 486.796356,318.928436 
	C485.244415,323.400757 483.517609,327.883209 482.950806,332.559113 
	C484.960297,333.924377 486.836609,333.594208 488.630096,333.602814 
	C496.626434,333.641144 504.624146,333.724365 512.619202,333.622528 
	C523.664124,333.481842 522.476562,335.525970 526.110046,322.700531 
M409.971313,287.572906 
	C412.161987,279.643677 414.902191,271.848877 416.322235,263.548096 
	C414.971985,263.110840 414.047333,262.557465 413.117889,262.549255 
	C402.308716,262.454102 391.498810,262.454712 380.689240,262.397278 
	C377.879395,262.382324 377.070587,264.326935 376.490234,266.509247 
	C370.938904,287.383545 365.436615,308.270996 359.815399,329.126434 
	C358.931091,332.407318 359.723206,333.813812 363.217865,333.786285 
	C373.197357,333.707611 383.178711,333.666077 393.157227,333.785797 
	C396.231018,333.822662 397.507538,332.525574 398.281738,329.657745 
	C402.005768,315.863037 405.921173,302.119965 409.971313,287.572906 
z"/>
<path fill="#000000" opacity="1.000000" stroke="none" 
	d="
M590.331360,426.389038 
	C585.151917,410.524628 587.987427,396.618347 599.334595,384.931091 
	C609.807800,374.143921 622.888489,371.191132 637.047363,375.406494 
	C651.068726,379.580994 658.961670,389.976074 662.185486,403.966400 
	C665.763489,419.493622 659.693604,435.159729 646.744812,444.460815 
	C645.816162,445.127869 644.914062,445.831787 644.039001,447.726349 
	C646.709167,447.726349 649.379333,447.729706 652.049500,447.725861 
	C673.878052,447.694275 695.706543,447.667114 717.535095,447.625793 
	C725.712524,447.610321 725.891235,447.736084 725.916931,454.248810 
	C725.943115,460.893097 725.653259,461.151031 717.712585,461.150085 
	C598.737793,461.135834 479.762970,461.118134 360.788147,461.099854 
	C328.794922,461.094940 296.801697,461.087891 264.808472,461.075806 
	C258.341888,461.073364 255.074020,455.671143 258.015167,449.803223 
	C259.260376,447.318817 261.686157,447.884064 263.766144,447.878387 
	C282.262054,447.827972 300.758087,447.833740 319.254089,447.823151 
	C320.863373,447.822235 322.472687,447.823059 324.546814,447.823059 
	C299.858398,425.824402 296.384949,402.937164 314.546143,384.609558 
	C329.324158,369.696075 355.445312,370.451080 369.198639,386.075836 
	C383.491455,402.313477 384.628937,430.800812 358.137085,447.437744 
	C377.884033,447.437744 397.020233,447.437744 417.552246,447.437744 
	C403.467468,438.688293 396.395538,426.695618 396.478699,411.330048 
	C396.538544,400.274292 400.905304,390.591400 409.361053,383.055084 
	C424.397797,369.653320 449.657532,370.962494 462.046509,385.910980 
	C477.168213,404.156799 476.117981,431.214020 450.956421,447.413513 
	C503.502594,447.413513 555.444336,447.413513 608.494995,447.413513 
	C599.835266,441.899475 593.861694,435.406342 590.331360,426.389038 
M423.158173,400.663544 
	C417.858978,406.055359 416.989746,412.457123 419.884216,419.083801 
	C422.414368,424.876282 427.304016,427.805573 433.788330,427.935364 
	C440.977631,428.079254 445.811676,424.577332 448.791473,418.338715 
	C451.741089,412.163269 449.738403,404.301544 444.306549,399.806732 
	C438.454712,394.964355 430.735382,395.100403 423.158173,400.663544 
M339.799408,427.874512 
	C347.417511,428.220551 353.224976,425.251221 356.003082,418.005951 
	C358.306763,411.997955 357.348969,406.181915 352.865143,401.302185 
	C348.196075,396.220886 340.592102,394.745117 334.556213,397.593964 
	C328.070984,400.654938 324.555328,406.445221 325.101624,413.165619 
	C325.759766,421.261261 329.891022,425.623444 339.799408,427.874512 
M615.651733,400.102295 
	C608.918274,407.145050 608.362122,416.419128 614.289185,422.823364 
	C620.112488,429.115509 629.648071,429.609467 636.275330,423.962219 
	C642.501770,418.656525 643.528931,409.499542 638.642273,402.860901 
	C633.192932,395.457764 624.331665,394.172424 615.651733,400.102295 
z"/>
<path fill="#000000" opacity="1.000000" stroke="none" 
	d="
M443.747040,416.177490 
	C440.208862,421.714813 436.293304,423.569977 431.579681,421.975494 
	C427.384064,420.556274 425.009155,417.416809 424.837738,413.042114 
	C424.657135,408.433899 426.960724,405.177124 431.279236,403.401886 
	C437.696381,400.763947 446.772522,407.337128 443.747040,416.177490 
z"/>
<path fill="#000000" opacity="1.000000" stroke="none" 
	d="
M349.696808,418.368835 
	C344.532196,423.100769 339.737732,423.778961 335.578003,420.654114 
	C332.145996,418.075958 330.817841,412.994690 332.517914,408.946686 
	C334.623505,403.933075 340.391846,401.425140 345.347534,403.368744 
	C350.997131,405.584503 352.739471,411.165497 349.696808,418.368835 
z"/>
<path fill="#000000" opacity="1.000000" stroke="none" 
	d="
M615.937988,414.534180 
	C615.466370,408.924286 617.269348,404.974091 622.503662,403.321350 
	C626.648926,402.012512 630.347778,402.760162 633.111755,406.464874 
	C636.057678,410.413452 635.892090,414.458618 633.452576,418.510315 
	C631.573914,421.630463 628.528259,423.101898 625.071350,422.858185 
	C620.257385,422.518799 617.301025,419.564728 615.937988,414.534180 
z"/>
</svg>